<svg width="144" height="402" viewBox="0 0 144 402" fill="none" xmlns="http://www.w3.org/2000/svg">
<rect x="12" y="148" width="120" height="160" stroke="black" stroke-width="10" stroke-linejoin="round"/>
<rect y="136" width="24" height="24" fill="black"/>
<rect x="120" y="296" width="24" height="24" fill="black"/>
<rect y="296" width="24" height="24" fill="black"/>
<rect x="120" y="136" width="24" height="24" fill="black"/>
<line x1="14" y1="146.5" x2="134" y2="306.5" stroke="black" stroke-width="5"/>
<line x1="10" y1="306.5" x2="130" y2="146.5" stroke="black" stroke-width="5"/>
<rect x="44" y="315" width="56" height="36" fill="black"/>
<line x1="85" y1="2.98987" x2="87" y2="397.99" stroke="black" stroke-width="4"/>
<path d="M59 3L59 398" stroke="black" stroke-width="4"/>
<path d="M72.5 198C77.4006 198 81.9811 200.611 85.4023 205.117C88.8247 209.625 91 215.941 91 223C91 230.059 88.8247 236.375 85.4023 240.883C81.9811 245.389 77.4006 248 72.5 248C67.5994 248 63.0189 245.389 59.5977 240.883C56.1753 236.375 54 230.059 54 223C54 215.941 56.1753 209.625 59.5977 205.117C63.0189 200.611 67.5994 198 72.5 198Z" stroke="black" stroke-width="4"/>
<line x1="58.9911" y1="396.5" x2="87.0089" y2="396.5" stroke="black" stroke-width="4"/>
<path d="M57 5L86.5 5" stroke="black" stroke-width="4"/>
<line x1="59" y1="373" x2="87" y2="373" stroke="black" stroke-width="2"/>
<line x1="61" y1="40" x2="84" y2="40" stroke="black" stroke-width="2"/>
<rect x="64" width="16" height="41" fill="black"/>
<rect x="65" y="374" width="16" height="28" fill="black"/>
</svg>
